<?xml version="1.0" standalone="no"?>
<!DOCTYPE svg PUBLIC "-//W3C//DTD SVG 20010904//EN"
 "http://www.w3.org/TR/2001/REC-SVG-20010904/DTD/svg10.dtd">
<svg version="1.0" xmlns="http://www.w3.org/2000/svg"
 width="900.000000pt" height="643.000000pt" viewBox="0 0 900.000000 643.000000"
 preserveAspectRatio="xMidYMid meet">
<metadata>
Created by potrace 1.16, written by Peter Selinger 2001-2019
</metadata>
<g transform="translate(0.000000,643.000000) scale(0.100000,-0.100000)"
fill="#000000" stroke="none">
<path d="M5006 5040 c-137 -16 -236 -40 -416 -103 -174 -61 -176 -61 -275 -58
-98 2 -104 1 -320 -64 -121 -37 -292 -88 -380 -114 -88 -26 -173 -56 -188 -66
-16 -10 -39 -40 -53 -66 l-24 -48 -837 -276 c-461 -152 -867 -286 -903 -297
-205 -66 -338 -138 -438 -237 -110 -108 -176 -231 -220 -409 l-26 -107 -3
-535 c-3 -294 -1 -550 2 -568 8 -43 69 -110 120 -133 46 -20 155 -34 375 -49
85 -6 162 -13 171 -15 9 -3 24 -36 39 -86 16 -57 37 -99 71 -147 27 -37 49
-70 49 -74 0 -5 -127 -8 -282 -9 -156 0 -303 -4 -328 -8 -43 -8 -43 -9 -10
-10 19 0 145 -5 280 -11 135 -6 497 -19 805 -30 308 -11 601 -22 650 -25 50
-3 302 -12 560 -20 792 -26 1543 -54 1900 -72 453 -23 1011 -23 1355 0 211 14
1129 62 1290 68 112 4 -115 18 -390 23 -173 3 -357 9 -407 13 l-93 6 56 56
c31 31 73 85 93 121 l37 65 266 5 c265 5 267 5 292 29 39 37 46 79 46 276 0
136 4 194 16 235 27 92 28 136 5 214 -11 40 -25 130 -31 207 -18 237 -97 674
-165 907 -58 202 -153 420 -261 598 -24 40 -44 75 -44 78 0 3 49 6 108 6 77 0
114 -4 128 -14 18 -14 18 -15 -9 -36 -27 -21 -27 -22 -27 -151 0 -125 1 -131
25 -154 18 -19 35 -25 68 -25 67 0 72 11 72 162 0 130 0 130 -27 152 -34 27
-35 36 -3 36 36 0 124 -123 150 -210 38 -127 66 -160 134 -160 39 0 47 34 27
128 -22 107 -69 197 -140 268 -110 109 -267 164 -532 184 -138 11 -151 14
-184 39 -325 254 -807 424 -1405 497 -152 18 -650 27 -769 14z m306 -135 c291
-38 405 -109 517 -325 116 -221 197 -490 286 -940 54 -268 69 -316 130 -399
51 -69 122 -121 300 -222 229 -129 476 -232 645 -269 197 -43 340 -36 466 24
52 25 74 31 87 24 31 -16 47 -71 47 -161 0 -70 -3 -87 -19 -101 -16 -15 -55
-92 -75 -150 -6 -18 -15 -19 -154 -13 -81 4 -272 14 -426 24 l-279 17 -14 36
c-68 168 -112 209 -344 314 -96 44 -227 106 -293 138 -65 32 -122 58 -128 58
-26 0 30 -214 79 -299 94 -162 304 -267 613 -306 68 -8 322 -29 565 -45 242
-17 446 -33 453 -35 18 -6 15 -72 -3 -79 -16 -6 -248 3 -770 29 -420 21 -484
20 -526 -8 -48 -32 -61 -66 -73 -192 l-11 -110 -217 -3 -218 -2 0 717 c0 395
-5 797 -10 893 -29 505 -78 778 -175 976 -75 153 -185 253 -325 294 -68 20
-302 50 -392 50 -64 0 -177 -27 -318 -75 -197 -67 -2156 -683 -2795 -878 -511
-157 -626 -190 -632 -183 -22 21 119 107 237 144 149 47 1404 457 2639 862
337 110 638 205 670 210 71 11 323 3 463 -15z m653 -20 c88 -14 230 -42 315
-61 144 -34 437 -123 470 -144 29 -18 -1 -22 -57 -8 -32 9 -134 36 -228 61
-93 25 -233 59 -310 76 -323 73 -405 93 -405 103 0 5 12 7 28 4 15 -3 99 -17
187 -31z m136 -174 c82 -19 639 -187 896 -272 103 -34 131 -48 172 -85 91 -82
229 -339 341 -634 64 -169 170 -520 170 -562 0 -26 -23 -22 -52 10 -34 36 -36
41 -108 241 -79 221 -171 443 -266 641 -94 194 -124 241 -173 268 -45 26 -801
282 -831 282 -11 0 -20 -5 -20 -11 0 -7 47 -179 104 -383 58 -204 126 -452
151 -551 53 -203 70 -242 128 -302 46 -48 41 -52 -35 -22 -74 29 -140 73 -160
106 -9 16 -26 85 -38 154 -22 133 -175 909 -191 971 -14 54 -50 78 -115 78
-30 0 -54 -2 -54 -5 0 -3 27 -92 59 -198 112 -365 206 -779 167 -736 -2 2 -34
108 -71 234 -74 256 -148 480 -206 629 -37 93 -47 144 -32 159 11 12 76 7 164
-12z m-961 -325 c0 -2 -30 -18 -67 -36 -181 -84 -189 -101 -219 -497 -17 -211
-17 -224 0 -267 10 -27 31 -57 49 -70 18 -13 247 -126 510 -252 l477 -227 0
-548 c0 -532 -1 -549 -19 -559 -27 -14 -116 -13 -128 3 -6 6 -13 56 -17 109
-14 205 -59 405 -122 536 -97 202 -262 301 -501 302 -304 0 -478 -205 -544
-643 -7 -48 -17 -86 -23 -84 -5 2 -19 32 -31 68 -59 176 -168 296 -310 343
-87 28 -231 23 -1315 -49 -124 -8 -344 -23 -490 -32 l-265 -17 -70 35 c-67 33
-73 34 -185 33 -89 0 -123 -4 -152 -18 -84 -40 -140 -187 -164 -429 -3 -37
-10 -70 -15 -73 -13 -7 -439 25 -477 37 -63 20 -62 13 -62 586 1 549 5 607 49
724 45 118 104 169 242 204 100 26 624 174 1487 419 436 124 800 226 810 226
32 0 -3 -18 -83 -43 -44 -14 -386 -123 -760 -242 -374 -119 -841 -268 -1038
-330 -197 -63 -373 -123 -392 -135 -53 -32 -112 -106 -135 -166 -29 -78 -28
-180 3 -225 64 -97 155 -97 697 -5 217 37 398 70 402 72 4 2 9 0 12 -5 7 -11
59 1 -539 -126 -275 -58 -507 -109 -515 -112 -156 -57 1260 183 2455 417 755
147 987 190 997 184 12 -8 10 -592 -2 -599 -13 -8 -87 -16 -860 -90 -371 -35
-830 -80 -1020 -99 -190 -19 -421 -42 -515 -51 -93 -9 -213 -22 -265 -30 -92
-12 -93 -13 -35 -14 65 -1 570 30 880 54 105 8 372 28 595 45 567 42 1284 101
1290 107 3 3 6 194 7 426 2 357 6 464 27 695 22 238 28 278 48 314 30 56 89
95 174 118 65 18 124 25 124 16z m-135 -553 c-4 -123 -11 -223 -16 -223 -36 0
-45 231 -15 385 34 175 41 140 31 -162z m2170 156 c52 -46 113 -179 200 -441
41 -125 75 -231 75 -236 0 -17 -53 -24 -137 -17 l-83 7 -43 62 c-63 91 -104
110 -242 114 -92 3 -120 0 -172 -17 -34 -12 -67 -21 -73 -21 -16 0 -13 480 4
502 31 41 185 75 348 77 84 1 89 0 123 -30z m-159 -590 c32 -8 49 -19 57 -36
18 -41 -1 -43 -120 -18 -139 29 -163 41 -108 50 22 4 45 8 50 10 22 7 78 4
121 -6z m-748 -675 c18 -12 22 -25 22 -64 0 -74 -6 -83 -41 -65 -16 9 -35 29
-44 45 -15 30 -20 82 -8 93 11 12 48 7 71 -9z m207 -79 c48 -47 23 -125 -40
-125 -69 0 -99 77 -50 125 31 32 59 32 90 0z m227 -92 c38 -43 24 -114 -24
-127 -57 -15 -104 79 -62 125 21 24 66 25 86 2z m1157 -99 c15 -34 14 -55 -5
-82 -32 -46 -84 -19 -84 45 0 33 8 46 34 60 26 14 41 8 55 -23z m-5383 -41
c18 -7 19 -94 2 -111 -7 -7 -21 -13 -33 -13 -13 -1 -10 -4 10 -8 l30 -6 0
-140 0 -140 -122 -3 c-120 -3 -123 -2 -127 20 -3 13 -12 70 -21 126 -9 57 -29
147 -45 199 l-29 96 161 -7 c88 -4 167 -10 174 -13z m1514 -8 l55 -19 -70 -7
c-162 -17 -533 -34 -633 -30 -9 1 -12 12 -10 34 l3 32 125 6 c238 11 469 4
530 -16z m-717 -9 c11 -29 -5 -55 -37 -60 -17 -3 -128 -10 -246 -16 -118 -5
-264 -13 -324 -16 -123 -7 -126 -6 -126 64 l0 42 364 0 c303 0 365 -2 369 -14z
m1894 -31 c67 -20 140 -86 178 -162 28 -53 30 -66 30 -163 0 -94 -3 -110 -27
-155 -103 -197 -340 -222 -469 -51 -122 161 -84 408 78 502 75 45 131 52 210
29z m-1179 -65 c156 -26 251 -88 306 -202 19 -40 36 -91 38 -113 l3 -40 -165
-1 c-170 -1 -503 9 -717 21 l-123 7 0 159 c0 187 -19 168 170 172 314 7 429 6
488 -3z m-729 -9 c12 -8 15 -41 15 -163 l1 -153 -315 2 c-173 1 -339 5 -367 8
l-53 6 0 139 c0 100 3 141 13 147 10 7 120 11 612 21 44 1 86 -2 94 -7z
m-1339 -77 c15 -9 34 -29 43 -44 l16 -27 -68 1 c-54 1 -73 -3 -90 -18 -30 -27
-44 -87 -31 -134 15 -58 49 -84 115 -90 44 -4 55 -8 55 -22 0 -25 -23 -41 -71
-47 -38 -6 -40 -7 -24 -20 11 -7 29 -13 42 -13 32 0 29 -17 -8 -36 -44 -22
-88 -11 -132 34 -48 49 -67 107 -67 201 0 65 5 86 28 132 45 89 124 123 192
83z m5370 -119 c228 -9 430 -18 447 -21 25 -4 34 -11 39 -30 7 -29 0 -137 -11
-153 -4 -8 -191 -11 -605 -11 -666 0 -602 -7 -620 69 -11 45 12 130 41 154 22
17 36 18 159 13 74 -4 322 -13 550 -21z m-4485 -240 c132 -3 254 -8 271 -11
28 -4 34 -12 60 -72 19 -46 47 -87 88 -129 l59 -63 -250 0 c-137 0 -399 3
-582 7 -309 6 -330 7 -319 23 7 9 27 36 45 60 18 23 41 65 52 94 10 28 24 64
30 80 l12 29 147 -6 c81 -4 255 -9 387 -12z m1596 -50 c13 -1 75 -3 136 -4
l113 -1 31 -62 c17 -35 47 -86 65 -114 19 -28 34 -56 34 -63 0 -7 -26 -11 -77
-11 -146 0 -1108 22 -1112 26 -2 2 17 28 42 57 25 29 60 84 79 121 l33 68 316
-7 c174 -4 327 -9 340 -10z m2004 -92 c20 -38 60 -94 87 -126 28 -32 48 -61
45 -64 -9 -8 -993 8 -1008 17 -9 6 0 23 36 62 26 29 66 81 87 116 l40 62 338
0 338 0 37 -67z"/>
<path d="M6670 2816 c0 -11 166 -115 258 -161 326 -163 530 -165 730 -5 29 23
51 44 49 47 -3 2 -41 -5 -85 -17 -161 -41 -337 -43 -494 -6 -35 8 -151 45
-258 81 -206 69 -200 67 -200 61z"/>
<path d="M4933 3279 l-33 -10 0 -109 0 -110 61 0 c96 0 99 4 99 118 0 63 -4
102 -12 110 -14 14 -69 14 -115 1z"/>
<path d="M1120 2465 c-19 -23 5 -45 51 -45 39 0 61 21 52 48 -7 18 -88 16
-103 -3z"/>
<path d="M5105 2300 c11 -4 35 -14 53 -20 18 -7 38 -22 44 -33 9 -17 8 -19 -8
-12 -72 29 -110 35 -155 25 -84 -20 -138 -96 -146 -204 -6 -75 7 -128 47 -188
61 -91 179 -115 270 -54 116 76 136 307 38 427 -29 36 -91 69 -127 68 -29 0
-32 -2 -16 -9z m130 -371 c11 -49 -45 -98 -127 -113 -72 -13 -177 57 -162 108
11 37 20 38 53 7 58 -55 128 -51 186 9 32 34 41 32 50 -11z"/>
</g>
</svg>
